<svg width="198" height="33" viewBox="0 0 198 33" fill="none" xmlns="http://www.w3.org/2000/svg">
<path fill="currentColor" clip-rule="evenodd" d="M0 1.7244V5.29637L3.07928 7.02077L6.15857 5.29637V1.7244L3.07928 0L0 1.7244ZM59.8613 13.3025V0.369528H55.1808V32.0246H59.8613V29.3148L65.8967 32.5173L74.026 29.1916V13.4257L65.8967 10.1001L59.8613 13.3025ZM69.5918 16.3818V26.3587L66.0199 27.9599L59.8613 24.6343V18.4757L66.0199 15.0269L69.5918 16.3818ZM30.7929 21.3087L33.8721 13.1793L41.0161 9.85372L50.6234 12.933V22.7867H36.0892L37.5673 26.4819L41.5088 28.0831L50.5003 25.0038V29.5611L41.5088 32.6404L33.9953 29.6843L30.7929 21.3087ZM46.3124 18.7221V15.8891L41.1393 14.4111L37.4441 15.8891L36.2124 18.7221H46.3124ZM12.0708 13.1794L8.99152 21.3087L12.0708 29.438L19.8306 32.6404L28.0831 30.3002V25.6197L19.9538 27.9599L15.8891 26.2355L14.1647 21.1855L15.8891 16.1355L19.8306 14.5342L28.0831 16.2586V11.8245L19.7074 9.9769L12.0708 13.1794ZM5.41953 10.7159H0.739022V32.0246H5.41953V10.7159ZM162.34 13.1793L159.261 21.3087L162.463 29.6843L169.977 32.6404L178.968 29.5611V25.0038L169.977 28.0831L166.035 26.4819L164.557 22.7867H179.091V12.933L169.484 9.85372L162.34 13.1793ZM174.78 15.8891V18.7221H164.68L165.912 15.8891L169.607 14.4111L174.78 15.8891ZM92.748 21.3087L95.8273 13.1794L102.971 9.9769L112.579 13.0562V22.9099H98.0444L99.5225 26.605L103.464 28.2063L112.455 25.0038V29.5611L103.464 32.6404L95.9505 29.6843L92.748 21.3087ZM108.268 18.7221V15.8891L103.094 14.4111L99.3993 15.8891L98.1676 18.7221H108.268ZM117.136 16.3818V11.9476L126.127 9.73055L134.749 13.1793V32.0246H130.438V29.5611L124.526 32.6404L117.136 30.7929V20.3233L130.438 18.1062V16.0123L126.004 14.1647L117.136 16.3818ZM124.034 28.3294L130.438 25.0038H130.315V21.9245L121.324 23.4026V27.5904L124.034 28.3294ZM194.118 10.7159H197.074V13.672L188.329 21.555V32.0246H183.649V10.7159H188.329V16.0123L194.118 10.7159ZM83.2638 16.0123V10.7159H78.5833V32.0246H83.2638V21.555L92.009 13.672V10.7159H89.0529L83.2638 16.0123ZM144.11 19.0916H146.574L155.073 10.7159H158.152V13.672L150.515 21.3087L158.152 28.9453V32.0246H155.073L146.328 23.2794H144.11V32.0246H139.43V0.369528H144.11V19.0916Z"></path>
</svg>